<svg xmlns="http://www.w3.org/2000/svg" width="20" height="21" viewBox="0 0 20 21" fill="none">
    <path fill-rule="evenodd" clip-rule="evenodd"
        d="M3.05293 2.5H2L2.05426 3.55153L2.51624 12.5044L2.56518 13.4529H3.51491H5.84911V11.4529H4.46464L4.10586 4.5H11.3249V6.36493H13.3249V3.5V2.5H12.3249H3.05293ZM8.11163 7.57888L7.05834 7.56051L7.09479 8.61333L7.40277 17.5093L7.43714 18.5018L8.42992 18.4743L16.6401 18.2464L17.5734 18.2205L17.6116 17.2877L17.9601 8.77427L18.0019 7.75138L16.9783 7.73352L8.11163 7.57888ZM9.36721 16.4475L9.13004 9.59695L15.9199 9.71537L15.6514 16.2731L9.36721 16.4475Z"
        fill="#FFD499" />
</svg>